HIERARCHY
ROOT Joint1
{
	OFFSET 0.000000 0.000000 0.000000
	CHANNELS 6 Xposition Yposition Zposition Xrotation Yrotation Zrotation
	JOINT Joint2
	{
		OFFSET -0.000000 0.000000 1.456275
		CHANNELS 6 Xposition Yposition Zposition Xrotation Yrotation Zrotation
		JOINT Joint3
		{
			OFFSET -0.000000 0.000002 1.471446
			CHANNELS 6 Xposition Yposition Zposition Xrotation Yrotation Zrotation
			JOINT Joint4
			{
				OFFSET 0.625745 0.000000 0.917755
				CHANNELS 6 Xposition Yposition Zposition Xrotation Yrotation Zrotation
				JOINT Joint5
				{
					OFFSET -0.629534 0.000001 0.940221
					CHANNELS 6 Xposition Yposition Zposition Xrotation Yrotation Zrotation
					JOINT Joint6
					{
						OFFSET -0.000001 0.113772 1.960660
						CHANNELS 6 Xposition Yposition Zposition Xrotation Yrotation Zrotation
						JOINT Joint7
						{
							OFFSET -0.669733 -0.113771 0.388340
							CHANNELS 6 Xposition Yposition Zposition Xrotation Yrotation Zrotation
							End Site
							{
								OFFSET 0.005509 0.005509 0.438980
							}
						}
					}
				}
			}
		}
	}
}
MOTION
Frames: 9
Frame Time: 0.041667
0.000000 0.000000 0.000000 -0.000000 1.019410 65.233176 -0.000000 0.000000 1.456275 -0.000000 -23.300236 0.000000 -0.000000 0.000002 1.471446 -0.000000 -1.133463 1.378186 0.625744 0.000000 0.917755 0.000008 123.115458 -0.000001 -0.629534 0.000001 0.940221 -0.000000 1.709736 -40.224616 -0.000001 0.113772 1.960660 -88.303875 -220.678727 0.000001 -0.669734 -0.113771 0.388340 0.272176 2.831279 61.068824 
0.000000 0.000000 0.000000 -0.000000 1.019410 63.848540 -0.000000 0.000000 1.456275 -0.000001 -23.760568 -0.000000 -0.000001 0.000002 1.471445 -0.000000 -1.133460 1.348182 0.625745 0.000000 0.917755 0.000007 123.368175 -0.000002 -0.629534 0.000001 0.940221 0.000001 1.709735 -39.371106 -0.000001 0.113772 1.960661 -88.303875 -221.726068 0.000003 -0.669733 -0.113771 0.388340 0.264107 2.857900 62.636537 
0.000000 0.000000 0.000000 -0.000000 1.019410 62.391661 -0.000000 -0.000000 1.456275 0.000000 -24.244923 -0.000003 -0.000000 0.000002 1.471446 0.000001 -1.133461 1.316613 0.625745 0.000000 0.917755 0.000002 123.634101 -0.000002 -0.629533 0.000001 0.940221 0.000001 1.709736 -38.473072 -0.000001 0.113772 1.960661 -88.303882 -222.828051 -0.000001 -0.669733 -0.113771 0.388340 0.254826 2.885658 64.286082 
0.000000 0.000000 0.000000 -0.000000 1.019410 60.573580 -0.000000 -0.000000 1.456275 0.000001 -24.849362 0.000002 -0.000000 0.000002 1.471445 -0.000000 -1.133460 1.277218 0.625744 0.000000 0.917755 0.000003 123.965939 -0.000002 -0.629534 0.000001 0.940221 0.000000 1.709736 -37.352385 -0.000001 0.113772 1.960660 -88.303882 -224.203241 0.000005 -0.669734 -0.113771 0.388340 0.242129 2.919907 66.344667 
0.000000 0.000000 0.000000 -0.000000 1.019410 58.257334 -0.000000 0.000000 1.456275 0.000001 -25.619423 0.000002 -0.000000 0.000002 1.471446 -0.000000 -1.133460 1.227032 0.625745 0.000000 0.917755 -0.000002 124.388700 -0.000004 -0.629534 0.000001 0.940221 0.000003 1.709735 -35.924626 -0.000001 0.113772 1.960660 -88.303868 -225.955253 0.000000 -0.669733 -0.113771 0.388340 0.224185 2.962845 68.967412 
0.000000 0.000000 0.000000 -0.000000 1.019410 55.913991 -0.000000 0.000000 1.456275 -0.000000 -26.398490 0.000001 -0.000001 0.000002 1.471446 0.000001 -1.133460 1.176251 0.625744 0.000000 0.917755 0.000005 124.816421 -0.000004 -0.629533 0.000001 0.940221 -0.000003 1.709734 -34.480161 -0.000001 0.113772 1.960660 -88.303875 -227.727769 0.000005 -0.669733 -0.113771 0.388340 0.204043 3.005403 71.620974 
0.000000 0.000000 0.000000 -0.000000 1.019410 54.029679 -0.000000 0.000000 1.456275 0.000001 -27.024950 0.000001 -0.000000 0.000002 1.471446 -0.000001 -1.133461 1.135422 0.625744 0.000000 0.917755 0.000008 125.160348 -0.000002 -0.629534 0.000001 0.940221 -0.000000 1.709735 -33.318650 -0.000001 0.113772 1.960661 -88.303875 -229.153052 0.000004 -0.669733 -0.113771 0.388340 0.186431 3.038922 73.754814 
0.000000 0.000000 0.000000 -0.000000 1.019410 52.542699 -0.000000 0.000000 1.456275 0.000002 -27.519310 0.000001 -0.000000 0.000002 1.471446 0.000002 -1.133457 1.103199 0.625745 0.000000 0.917755 0.000007 125.431766 -0.000004 -0.629533 0.000001 0.940221 -0.000002 1.709736 -32.402059 -0.000001 0.113772 1.960661 -88.303875 -230.277806 0.000007 -0.669733 -0.113771 0.388340 0.171655 3.064892 75.438756 
0.000000 0.000000 0.000000 -0.000000 1.019410 51.254395 -0.000000 -0.000000 1.456275 0.000002 -27.947618 -0.000001 -0.000000 0.000002 1.471445 0.000000 -1.133460 1.075286 0.625745 0.000000 0.917755 0.000009 125.666902 -0.000007 -0.629534 0.000001 0.940221 -0.000004 1.709737 -31.607933 -0.000001 0.113772 1.960661 -88.303875 -231.252283 0.000004 -0.669733 -0.113771 0.388340 0.158246 3.087038 76.897746 
